<?xml version="1.0" standalone="no"?>
<!DOCTYPE svg PUBLIC "-//W3C//DTD SVG 20010904//EN"
 "http://www.w3.org/TR/2001/REC-SVG-20010904/DTD/svg10.dtd">
<svg version="1.0" xmlns="http://www.w3.org/2000/svg"
 width="1280.000000pt" height="800.000000pt" viewBox="0 0 1280.000000 800.000000"
 preserveAspectRatio="xMidYMid meet">

<g transform="translate(0.000000,800.000000) scale(0.100000,-0.100000)"
fill="#000000" stroke="none">
<path d="M5365 5453 c-64 -16 -105 -85 -105 -178 0 -117 52 -180 150 -180 98
0 150 63 150 183 -1 83 -28 138 -82 162 -42 19 -73 23 -113 13z m115 -61 c32
-33 45 -92 35 -159 -21 -140 -190 -138 -210 2 -17 108 27 185 105 185 32 0 48
-6 70 -28z"/>
<path d="M5985 5453 c-64 -16 -105 -85 -105 -178 0 -117 52 -180 150 -180 98
0 150 63 150 183 -1 83 -28 138 -82 162 -42 19 -73 23 -113 13z m115 -61 c32
-33 45 -92 35 -159 -21 -140 -190 -138 -210 2 -17 108 27 185 105 185 32 0 48
-6 70 -28z"/>
<path d="M3890 5275 c0 -168 1 -175 20 -175 18 0 20 8 22 147 l3 148 42 -95
c23 -52 48 -96 55 -98 9 -2 28 28 52 85 21 48 42 92 47 98 5 5 9 -51 9 -138 0
-140 1 -147 20 -147 19 0 20 7 20 175 l0 175 -29 0 c-26 0 -31 -7 -67 -87 -21
-49 -41 -92 -44 -96 -4 -4 -26 35 -50 88 -40 88 -45 95 -71 95 l-29 0 0 -175z"/>
<path d="M4420 5275 c0 -168 1 -175 20 -175 19 0 20 7 20 155 l0 155 80 0 80
0 0 -155 0 -155 25 0 25 0 0 175 0 175 -125 0 -125 0 0 -175z"/>
<path d="M4740 5275 l0 -175 105 0 c98 0 105 1 105 20 0 18 -7 20 -85 20 l-85
0 0 65 0 65 80 0 c73 0 80 2 80 20 0 18 -7 20 -80 20 l-80 0 0 50 0 50 85 0
c78 0 85 2 85 20 0 19 -7 20 -105 20 l-105 0 0 -175z"/>
<path d="M5010 5275 c0 -168 1 -175 20 -175 18 0 20 7 20 65 l0 65 35 0 c47 0
98 22 119 51 20 30 21 98 1 126 -19 27 -72 43 -142 43 l-53 0 0 -175z m150
115 c48 -48 8 -120 -67 -120 l-43 0 0 70 0 70 45 0 c32 0 51 -6 65 -20z"/>
<path d="M5620 5276 l0 -176 68 0 c106 0 161 39 162 113 0 18 -10 39 -28 57
-27 27 -28 28 -10 50 25 30 23 82 -3 106 -16 15 -40 20 -105 23 l-84 3 0 -176z
m158 122 c7 -7 12 -22 12 -34 0 -37 -26 -54 -81 -54 l-49 0 0 50 0 50 53 0
c29 0 58 -5 65 -12z m5 -140 c9 -7 19 -25 22 -40 11 -44 -31 -78 -95 -78 l-50
0 0 65 0 65 53 0 c29 0 61 -6 70 -12z"/>
<path d="M4307 5153 c-10 -10 -8 -53 2 -53 25 0 41 14 41 36 0 17 -6 24 -18
24 -10 0 -22 -3 -25 -7z"/>
<path d="M4779 4902 c-62 -40 -134 -124 -153 -179 -45 -132 13 -290 99 -269
33 8 31 18 -7 36 -17 9 -40 31 -50 50 -26 47 -20 147 11 209 29 56 103 135
141 151 16 7 27 16 24 21 -8 14 -17 11 -65 -19z"/>
<path d="M5917 4919 c-17 -10 -15 -12 14 -27 54 -28 74 -65 74 -135 -1 -104
-72 -225 -159 -272 -20 -11 -36 -23 -36 -27 0 -33 116 45 170 113 70 88 87
203 45 292 -10 21 -30 44 -46 52 -33 18 -38 18 -62 4z"/>
<path d="M4973 4868 c-6 -7 -15 -29 -22 -48 -6 -19 -27 -61 -46 -93 -49 -81
-47 -89 18 -82 28 4 62 8 74 11 20 4 21 1 15 -33 -11 -66 -8 -108 8 -108 11 0
18 19 25 70 11 76 10 74 77 61 23 -4 26 -2 21 12 -9 23 -23 32 -52 32 -22 0
-23 2 -15 48 12 74 10 96 -6 100 -13 2 -19 -14 -29 -72 l-12 -75 -37 -6 c-20
-3 -49 -8 -64 -10 -16 -3 -28 -2 -28 1 0 3 17 31 39 62 43 64 71 116 71 132 0
14 -25 13 -37 -2z"/>
<path d="M5293 4865 c-91 -39 -96 -187 -7 -209 32 -8 91 10 104 32 8 15 9 15
9 -3 1 -33 -35 -100 -64 -123 -30 -24 -84 -29 -103 -10 -6 6 -15 8 -19 4 -12
-11 36 -46 62 -46 94 0 165 89 172 215 4 58 1 76 -16 103 -32 50 -79 63 -138
37z m91 -24 c9 -10 20 -35 23 -55 5 -31 1 -42 -22 -67 -58 -59 -133 -28 -122
52 10 75 80 116 121 70z"/>
<path d="M5693 4873 l-82 -4 -9 -47 c-6 -26 -14 -64 -17 -84 l-7 -38 46 0 c89
0 125 -73 66 -132 -26 -26 -36 -29 -73 -26 -23 3 -50 8 -61 13 -31 14 -14 -18
18 -33 41 -20 108 -7 145 27 81 75 28 201 -84 201 -22 0 -25 4 -21 20 3 11 8
29 11 39 5 16 13 18 43 14 45 -6 87 9 102 37 6 11 9 19 8 18 -2 -1 -40 -4 -85
-5z"/>
<path d="M6214 4870 c-25 -10 -39 -28 -30 -37 4 -4 12 -1 18 5 30 30 98 3 98
-39 0 -44 -52 -91 -91 -82 -8 2 -23 -5 -33 -16 -18 -19 -18 -20 5 -25 13 -2
35 -4 48 -4 59 -2 82 -74 35 -111 -33 -26 -100 -28 -133 -5 -22 16 -23 15 -19
-2 8 -44 118 -56 175 -19 55 37 63 125 13 153 l-27 16 33 32 c26 24 34 40 34
65 0 40 -7 52 -37 68 -25 13 -59 13 -89 1z"/>
<path d="M6533 4861 c-104 -49 -158 -251 -86 -323 51 -51 156 -19 205 62 52
85 56 212 8 255 -28 25 -80 28 -127 6z m93 -37 c60 -90 -6 -294 -95 -294 -61
0 -88 97 -56 205 30 103 111 151 151 89z"/>
<path d="M6864 4870 c-25 -10 -39 -28 -30 -37 4 -4 12 -1 18 5 30 30 98 3 98
-39 0 -44 -52 -91 -91 -82 -8 2 -23 -5 -33 -16 -18 -19 -18 -20 5 -25 13 -2
35 -4 48 -4 59 -2 82 -74 35 -111 -33 -26 -100 -28 -133 -5 -22 16 -23 15 -19
-2 8 -44 118 -56 175 -19 55 37 63 125 13 153 l-27 16 33 32 c26 24 34 40 34
65 0 40 -7 52 -37 68 -25 13 -59 13 -89 1z"/>
<path d="M7413 4861 c-104 -49 -158 -251 -86 -323 51 -51 156 -19 205 62 52
85 56 212 8 255 -28 25 -80 28 -127 6z m93 -37 c60 -90 -6 -294 -95 -294 -61
0 -88 97 -56 205 30 103 111 151 151 89z"/>
<path d="M7733 4861 c-104 -49 -158 -251 -86 -323 51 -51 156 -19 205 62 52
85 56 212 8 255 -28 25 -80 28 -127 6z m93 -37 c60 -90 -6 -294 -95 -294 -61
0 -88 97 -56 205 30 103 111 151 151 89z"/>
<path d="M8294 4870 c-25 -10 -39 -28 -30 -37 4 -4 12 -1 18 5 30 30 98 3 98
-39 0 -44 -52 -91 -91 -82 -8 2 -23 -5 -33 -16 -18 -19 -18 -20 5 -25 13 -2
35 -4 48 -4 59 -2 82 -74 35 -111 -33 -26 -100 -28 -133 -5 -22 16 -23 15 -19
-2 8 -44 118 -56 175 -19 55 37 63 125 13 153 l-27 16 33 32 c26 24 34 40 34
65 0 40 -7 52 -37 68 -25 13 -59 13 -89 1z"/>
<path d="M8614 4870 c-25 -10 -39 -28 -30 -37 4 -4 12 -1 18 5 30 30 98 3 98
-39 0 -44 -52 -91 -91 -82 -8 2 -23 -5 -33 -16 -18 -19 -18 -20 5 -25 13 -2
35 -4 48 -4 59 -2 82 -74 35 -111 -33 -26 -100 -28 -133 -5 -22 16 -23 15 -19
-2 8 -44 118 -56 175 -19 55 37 63 125 13 153 l-27 16 33 32 c26 24 34 40 34
65 0 40 -7 52 -37 68 -25 13 -59 13 -89 1z"/>
<path d="M4280 4851 c0 -26 19 -31 106 -31 l74 0 -40 -36 c-84 -76 -167 -236
-140 -269 25 -30 45 -18 47 29 2 60 53 157 119 226 31 33 54 66 54 78 0 21 -4
22 -110 22 -101 0 -110 -2 -110 -19z"/>
<path d="M4035 4770 c3 -10 3 -35 0 -53 -6 -33 -9 -35 -57 -39 -43 -5 -67 -18
-68 -39 0 -3 25 -4 56 -1 l55 5 -6 -37 c-12 -63 -11 -71 12 -74 17 -3 20 1 16
17 -3 12 -2 36 1 55 6 32 9 34 57 38 44 5 68 18 69 38 0 3 -25 3 -55 2 l-55
-4 7 47 c4 35 2 49 -8 56 -22 14 -31 10 -24 -11z"/>
<path d="M7146 4675 c-20 -21 -21 -20 12 -22 15 -1 38 -3 51 -5 31 -4 39 18 9
24 -13 3 -30 9 -39 12 -10 4 -23 0 -33 -9z"/>
<path d="M8026 4675 c-20 -21 -21 -20 12 -22 15 -1 38 -3 51 -5 31 -4 39 18 9
24 -13 3 -30 9 -39 12 -10 4 -23 0 -33 -9z"/>
<path d="M6085 3723 c-64 -16 -105 -85 -105 -178 0 -117 52 -180 150 -180 98
0 150 63 150 183 -1 83 -28 138 -82 162 -42 19 -73 23 -113 13z m115 -61 c32
-33 45 -92 35 -159 -21 -140 -190 -138 -210 2 -17 108 27 185 105 185 32 0 48
-6 70 -28z"/>
<path d="M3890 3545 c0 -168 1 -175 20 -175 18 0 20 8 22 147 l3 148 42 -95
c23 -52 48 -96 55 -98 9 -2 28 28 52 85 21 48 42 92 47 98 5 5 9 -51 9 -138 0
-140 1 -147 20 -147 19 0 20 7 20 175 l0 175 -29 0 c-26 0 -31 -7 -67 -87 -21
-49 -41 -92 -44 -96 -4 -4 -26 35 -50 88 -40 88 -45 95 -71 95 l-29 0 0 -175z"/>
<path d="M4420 3546 l0 -176 68 0 c106 0 161 39 162 113 0 18 -10 39 -28 57
-27 27 -28 28 -10 50 25 30 23 82 -3 106 -16 15 -40 20 -105 23 l-84 3 0 -176z
m158 122 c7 -7 12 -22 12 -34 0 -37 -26 -54 -81 -54 l-49 0 0 50 0 50 53 0
c29 0 58 -5 65 -12z m5 -140 c9 -7 19 -25 22 -40 11 -44 -31 -78 -95 -78 l-50
0 0 65 0 65 53 0 c29 0 61 -6 70 -12z"/>
<path d="M4700 3545 l0 -175 60 0 c65 0 125 20 146 48 16 21 18 86 3 114 -14
27 -69 48 -124 48 l-45 0 0 70 c0 63 -2 70 -20 70 -19 0 -20 -7 -20 -175z
m160 -25 c11 -11 20 -31 20 -45 0 -41 -33 -65 -90 -65 l-50 0 0 65 0 65 50 0
c37 0 55 -5 70 -20z"/>
<path d="M4960 3545 c0 -168 1 -175 20 -175 19 0 20 7 20 175 0 168 -1 175
-20 175 -19 0 -20 -7 -20 -175z"/>
<path d="M5056 3708 c4 -7 27 -46 52 -86 24 -39 42 -78 39 -86 -3 -7 -26 -45
-51 -85 -25 -39 -46 -74 -46 -77 0 -3 10 -4 22 -2 14 2 36 26 64 72 l42 68 24
-38 c14 -22 33 -54 43 -71 13 -22 27 -33 42 -33 13 0 23 2 23 4 0 3 -22 41
-50 85 -27 44 -50 85 -50 90 0 4 23 43 50 85 28 42 50 79 50 81 0 3 -9 5 -20
5 -15 0 -33 -20 -61 -65 -23 -36 -44 -65 -48 -65 -3 0 -24 29 -46 65 -30 50
-45 65 -63 65 -16 0 -21 -4 -16 -12z"/>
<path d="M5360 3544 c0 -174 0 -175 22 -172 16 2 41 37 97 137 l76 135 3 -137
c2 -129 4 -137 22 -137 19 0 20 8 20 176 0 175 0 175 -22 172 -17 -2 -41 -36
-97 -137 l-76 -133 -3 136 c-2 128 -4 136 -22 136 -19 0 -20 -8 -20 -176z"/>
<path d="M5680 3545 c0 -168 1 -175 20 -175 18 0 20 7 20 85 l0 85 80 0 80 0
0 -85 c0 -84 0 -85 25 -85 l25 0 0 175 0 175 -25 0 c-24 0 -25 -2 -25 -70 l0
-70 -80 0 -80 0 0 70 c0 63 -2 70 -20 70 -19 0 -20 -7 -20 -175z"/>
<path d="M4307 3423 c-10 -10 -8 -53 2 -53 25 0 41 14 41 36 0 17 -6 24 -18
24 -10 0 -22 -3 -25 -7z"/>
<path d="M4779 3182 c-62 -40 -134 -124 -153 -179 -45 -132 13 -290 99 -269
33 8 31 18 -7 36 -17 9 -40 31 -50 50 -26 47 -20 147 11 209 29 56 103 135
141 151 16 7 27 16 24 21 -8 14 -17 11 -65 -19z"/>
<path d="M5917 3199 c-17 -10 -15 -12 14 -27 54 -28 74 -65 74 -135 -1 -104
-72 -225 -159 -272 -20 -11 -36 -23 -36 -27 0 -33 116 45 170 113 70 88 87
203 45 292 -10 21 -30 44 -46 52 -33 18 -38 18 -62 4z"/>
<path d="M4973 3148 c-6 -7 -15 -29 -22 -48 -6 -19 -27 -61 -46 -93 -49 -81
-47 -89 18 -82 28 4 62 8 74 11 20 4 21 1 15 -33 -11 -66 -8 -108 8 -108 11 0
18 19 25 70 11 76 10 74 77 61 23 -4 26 -2 21 12 -9 23 -23 32 -52 32 -22 0
-23 2 -15 48 12 74 10 96 -6 100 -13 2 -19 -14 -29 -72 l-12 -75 -37 -6 c-20
-3 -49 -8 -64 -10 -16 -3 -28 -2 -28 1 0 3 17 31 39 62 43 64 71 116 71 132 0
14 -25 13 -37 -2z"/>
<path d="M5293 3145 c-91 -39 -96 -187 -7 -209 32 -8 91 10 104 32 8 15 9 15
9 -3 1 -33 -35 -100 -64 -123 -30 -24 -84 -29 -103 -10 -6 6 -15 8 -19 4 -12
-11 36 -46 62 -46 94 0 165 89 172 215 4 58 1 76 -16 103 -32 50 -79 63 -138
37z m91 -24 c9 -10 20 -35 23 -55 5 -31 1 -42 -22 -67 -58 -59 -133 -28 -122
52 10 75 80 116 121 70z"/>
<path d="M5693 3153 l-82 -4 -9 -47 c-6 -26 -14 -64 -17 -84 l-7 -38 46 0 c89
0 125 -73 66 -132 -26 -26 -36 -29 -73 -26 -23 3 -50 8 -61 13 -31 14 -14 -18
18 -33 41 -20 108 -7 145 27 81 75 28 201 -84 201 -22 0 -25 4 -21 20 3 11 8
29 11 39 5 16 13 18 43 14 45 -6 87 9 102 37 6 11 9 19 8 18 -2 -1 -40 -4 -85
-5z"/>
<path d="M6214 3150 c-25 -10 -39 -28 -30 -37 4 -4 12 -1 18 5 30 30 98 3 98
-39 0 -44 -52 -91 -91 -82 -8 2 -23 -5 -33 -16 -18 -19 -18 -20 5 -25 13 -2
35 -4 48 -4 59 -2 82 -74 35 -111 -33 -26 -100 -28 -133 -5 -22 16 -23 15 -19
-2 8 -44 118 -56 175 -19 55 37 63 125 13 153 l-27 16 33 32 c26 24 34 40 34
65 0 40 -7 52 -37 68 -25 13 -59 13 -89 1z"/>
<path d="M7473 3153 l-82 -4 -9 -47 c-6 -26 -14 -64 -17 -84 l-7 -38 46 0 c89
0 125 -73 66 -132 -26 -26 -36 -29 -73 -26 -23 3 -50 8 -61 13 -31 14 -14 -18
18 -33 41 -20 108 -7 145 27 81 75 28 201 -84 201 -22 0 -25 4 -21 20 3 11 8
29 11 39 5 16 13 18 43 14 45 -6 87 9 102 37 6 11 9 19 8 18 -2 -1 -40 -4 -85
-5z"/>
<path d="M7765 3153 c-37 -9 -83 -52 -106 -100 -30 -62 -33 -174 -6 -214 27
-40 69 -54 117 -40 63 19 98 73 91 141 -8 76 -99 103 -158 48 -17 -16 -23 -18
-23 -7 0 27 48 117 71 133 27 18 71 21 100 6 15 -9 19 -7 19 5 0 26 -54 40
-105 28z m37 -190 c27 -25 24 -85 -8 -122 -42 -51 -96 -37 -114 29 -12 45 -4
69 32 94 29 21 67 20 90 -1z"/>
<path d="M4280 3131 c0 -26 19 -31 106 -31 l74 0 -40 -36 c-84 -76 -167 -236
-140 -269 25 -30 45 -18 47 29 2 60 53 157 119 226 31 33 54 66 54 78 0 21 -4
22 -110 22 -101 0 -110 -2 -110 -19z"/>
<path d="M6470 3131 c0 -26 19 -31 106 -31 l74 0 -40 -36 c-84 -76 -167 -236
-140 -269 25 -30 45 -18 47 29 2 60 53 157 119 226 31 33 54 66 54 78 0 21 -4
22 -110 22 -101 0 -110 -2 -110 -19z"/>
<path d="M6800 3131 c0 -26 19 -31 106 -31 l74 0 -40 -36 c-84 -76 -167 -236
-140 -269 25 -30 45 -18 47 29 2 60 53 157 119 226 31 33 54 66 54 78 0 21 -4
22 -110 22 -101 0 -110 -2 -110 -19z"/>
<path d="M8325 3129 c-22 -10 -52 -19 -67 -19 -18 0 -28 -5 -28 -14 0 -20 32
-28 64 -17 14 6 26 7 26 2 0 -20 -42 -218 -50 -238 -7 -17 -18 -23 -41 -23
-24 0 -30 -4 -27 -17 4 -19 6 -19 134 -7 63 6 71 9 67 25 -6 21 -44 35 -68 25
-19 -7 -19 -6 11 151 14 74 24 138 22 142 -2 4 -21 0 -43 -10z"/>
<path d="M8550 3131 c0 -26 19 -31 106 -31 l74 0 -40 -36 c-84 -76 -167 -236
-140 -269 25 -30 45 -18 47 29 2 60 53 157 119 226 31 33 54 66 54 78 0 21 -4
22 -110 22 -101 0 -110 -2 -110 -19z"/>
<path d="M4035 3050 c3 -10 3 -35 0 -53 -6 -33 -9 -35 -57 -39 -43 -5 -67 -18
-68 -39 0 -3 25 -4 56 -1 l55 5 -6 -37 c-12 -63 -11 -71 12 -74 17 -3 20 1 16
17 -3 12 -2 36 1 55 6 32 9 34 57 38 44 5 68 18 69 38 0 3 -25 3 -55 2 l-55
-4 7 47 c4 35 2 49 -8 56 -22 14 -31 10 -24 -11z"/>
<path d="M7146 2955 c-20 -21 -21 -20 12 -22 15 -1 38 -3 51 -5 31 -4 39 18 9
24 -13 3 -30 9 -39 12 -10 4 -23 0 -33 -9z"/>
<path d="M8026 2955 c-20 -21 -21 -20 12 -22 15 -1 38 -3 51 -5 31 -4 39 18 9
24 -13 3 -30 9 -39 12 -10 4 -23 0 -33 -9z"/>
</g>
</svg>
